<?xml version="1.0" encoding="UTF-8"?>
<svg id="Layer_1" xmlns="http://www.w3.org/2000/svg" version="1.1" viewBox="0 0 416.1 378.6">
  <!-- Generator: Adobe Illustrator 30.0.0, SVG Export Plug-In . SVG Version: 2.1.1 Build 123)  -->
  <defs>
    <style>
      .st0, .st1 {
        fill: #3376cf;
      }

      .st2, .st3 {
        fill: #9dd2fb;
      }

      .st4, .st5 {
        fill: #eb9455;
      }

      .st1, .st6, .st7, .st8, .st9, .st10, .st11, .st3, .st12, .st5 {
        isolation: isolate;
      }

      .st1, .st8, .st11, .st3, .st12, .st5 {
        font-family: Arial-BoldMT, Arial;
        font-size: 25px;
        font-weight: 700;
      }

      .st7 {
        font-family: ArialMT, Arial;
        font-size: 12px;
      }

      .st8 {
        stroke: #3376cf;
      }

      .st8, .st11, .st12 {
        stroke-width: .5px;
      }

      .st8, .st11, .st12, .st13, .st14 {
        fill: none;
        stroke-miterlimit: 10;
      }

      .st9 {
        font-family: Roboto-Regular, Roboto;
      }

      .st9, .st10 {
        font-size: 15px;
      }

      .st10 {
        font-family: Roboto-Black, Roboto;
        font-weight: 800;
      }

      .st11 {
        stroke: #eb9455;
      }

      .st12 {
        stroke: #9dd2fb;
      }

      .st13, .st14 {
        stroke: #000;
      }

      .st14 {
        stroke-width: .2px;
      }
    </style>
  </defs>
  <g id="Capa_1">
    <line class="st14" x1="36.9" y1="268.7" x2="405.1" y2="268.7"/>
    <line class="st14" x1="36.9" y1="208.5" x2="405.1" y2="208.5"/>
    <line class="st14" x1="36.9" y1="148.3" x2="405.1" y2="148.3"/>
    <path class="st14" d="M36.9,88.1c88.3-.3,279.6-.3,368.1,0"/>
    <line class="st14" x1="36.9" y1="27.9" x2="191" y2="27.9"/>
    <line class="st14" x1="255" y1="27.9" x2="405.1" y2="27.9"/>
    <g class="st6">
      <g class="st6">
        <text class="st7" transform="translate(12.1 29.9)"><tspan x="0" y="0">15</tspan></text>
      </g>
    </g>
    <g class="st6">
      <g class="st6">
        <text class="st7" transform="translate(11.9 91.1)"><tspan x="0" y="0">12</tspan></text>
      </g>
    </g>
    <g class="st6">
      <g class="st6">
        <text class="st7" transform="translate(16.6 150.3)"><tspan x="0" y="0">9</tspan></text>
      </g>
    </g>
    <g class="st6">
      <g class="st6">
        <text class="st7" transform="translate(16.6 211.5)"><tspan x="0" y="0">6</tspan></text>
      </g>
    </g>
    <g class="st6">
      <g class="st6">
        <text class="st7" transform="translate(16.7 271.7)"><tspan x="0" y="0">3</tspan></text>
      </g>
    </g>
    <g class="st6">
      <g class="st6">
        <text class="st7" transform="translate(16.5 328.9)"><tspan x="0" y="0">0</tspan></text>
      </g>
    </g>
    <line class="st13" x1="36.9" y1="329" x2="405.1" y2="329"/>
  </g>
  <g id="Layer_2">
    <g class="st6">
      <text class="st1" transform="translate(78.6 182.4)"><tspan x="0" y="0">6,8</tspan></text>
      <text class="st8" transform="translate(78.6 182.4)"><tspan x="0" y="0">6,8</tspan></text>
    </g>
    <g class="st6">
      <text class="st5" transform="translate(326.5 250.7)"><tspan x="0" y="0">3,4</tspan></text>
      <text class="st11" transform="translate(326.5 250.7)"><tspan x="0" y="0">3,4</tspan></text>
    </g>
    <rect class="st0" x="51.2" y="191.2" width="89.5" height="137.3"/>
    <rect class="st2" x="178.4" y="35.3" width="89.5" height="293.2"/>
    <rect class="st4" x="299.2" y="258.9" width="89.5" height="69.6"/>
    <g class="st6">
      <text class="st3" transform="translate(198.8 26.7)"><tspan x="0" y="0">14,5</tspan></text>
      <text class="st12" transform="translate(198.8 26.7)"><tspan x="0" y="0">14,5</tspan></text>
    </g>
  </g>
  <g class="st6">
    <g class="st6">
      <text class="st10" transform="translate(81.1 347.5)"><tspan x="0" y="0">YPF</tspan></text>
    </g>
  </g>
  <text class="st9" transform="translate(170.1 347.5)"><tspan x="0" y="0">Otras empresas</tspan><tspan x="17.7" y="18">argentinas</tspan></text>
  <text class="st9" transform="translate(310.5 347.5)"><tspan x="0" y="0">Empresas</tspan><tspan x="-3.8" y="18">extranjeras</tspan></text>
</svg>