<?xml version="1.0" encoding="UTF-8"?>
<svg id="Capa_1" xmlns="http://www.w3.org/2000/svg" version="1.1" viewBox="0 0 416.1 378.6">
  <!-- Generator: Adobe Illustrator 30.0.0, SVG Export Plug-In . SVG Version: 2.1.1 Build 123)  -->
  <defs>
    <style>
      .st0, .st1 {
        fill: #3376cf;
      }

      .st2, .st3 {
        fill: #9dd2fb;
      }

      .st4, .st5 {
        fill: #eb9455;
      }

      .st5 {
        stroke: #eb9455;
      }

      .st5, .st6, .st7, .st1, .st3, .st8 {
        isolation: isolate;
      }

      .st5, .st9, .st10, .st1, .st3 {
        stroke-miterlimit: 10;
      }

      .st5, .st1, .st3 {
        font-size: 25px;
        stroke-width: .5px;
      }

      .st5, .st1, .st3, .st8 {
        font-family: Arial-BoldMT, Arial;
        font-weight: 700;
      }

      .st7 {
        font-family: ArialMT, Arial;
      }

      .st7, .st8 {
        font-size: 12px;
      }

      .st9 {
        stroke-width: .2px;
      }

      .st9, .st10 {
        fill: none;
        stroke: #000;
      }

      .st1 {
        stroke: #3376cf;
      }

      .st3 {
        stroke: #9dd2fb;
      }
    </style>
  </defs>
  <line class="st9" x1="36.9" y1="268.7" x2="324" y2="268.7"/>
  <line class="st9" x1="361" y1="268.7" x2="405.1" y2="268.7"/>
  <line class="st9" x1="36.9" y1="208.5" x2="405.1" y2="208.5"/>
  <line class="st9" x1="36.9" y1="148.3" x2="405.1" y2="148.3"/>
  <path class="st9" d="M130.2,88.1c88.3-.3,186.4-.3,274.9,0"/>
  <line class="st9" x1="36.9" y1="88.1" x2="62.8" y2="88.1"/>
  <line class="st9" x1="36.9" y1="27.9" x2="405.1" y2="27.9"/>
  <g class="st6">
    <text class="st7" transform="translate(12.1 29.9)"><tspan x="0" y="0">15</tspan></text>
  </g>
  <g class="st6">
    <text class="st1" transform="translate(70.4 98.4)"><tspan x="0" y="0">11,2</tspan></text>
  </g>
  <g class="st6">
    <text class="st8" transform="translate(83.1 345.5)"><tspan x="0" y="0">YPF</tspan></text>
  </g>
  <text class="st7" transform="translate(180.5 345.5)"><tspan x="0" y="0">Otras empresas</tspan><tspan x="14.7" y="14.4">argentinas</tspan></text>
  <text class="st7" transform="translate(316.8 345.5)"><tspan x="0" y="0">Empresas</tspan><tspan x="-2.7" y="14.4">extranjeras</tspan></text>
  <g class="st6">
    <text class="st5" transform="translate(336.9 282.6)"><tspan x="0" y="0">2</tspan></text>
  </g>
  <g class="st6">
    <text class="st7" transform="translate(11.9 91.1)"><tspan x="0" y="0">12</tspan></text>
  </g>
  <g class="st6">
    <text class="st7" transform="translate(16.6 150.3)"><tspan x="0" y="0">9</tspan></text>
  </g>
  <g class="st6">
    <text class="st7" transform="translate(16.6 211.5)"><tspan x="0" y="0">6</tspan></text>
  </g>
  <g class="st6">
    <text class="st7" transform="translate(16.7 271.7)"><tspan x="0" y="0">3</tspan></text>
  </g>
  <g class="st6">
    <text class="st7" transform="translate(16.5 328.9)"><tspan x="0" y="0">0</tspan></text>
  </g>
  <rect class="st0" x="50" y="105.1" width="89.5" height="223.4"/>
  <rect class="st2" x="178.4" y="176.2" width="89.5" height="152.3"/>
  <rect class="st4" x="299.1" y="287.5" width="89.5" height="41"/>
  <text class="st3" transform="translate(205.8 170.1)"><tspan x="0" y="0">7,5</tspan></text>
  <line class="st10" x1="36.9" y1="329" x2="405.1" y2="329"/>
</svg>